<svg xmlns="http://www.w3.org/2000/svg" viewBox="0 0 24 24" x="0px" y="0px" fill="#2a3b51"><path d="M9.13 15.75H7.98C7.93 15.75 7.88 15.72 7.87 15.67C7.46 14.49 7.26 13.25 7.26 12C7.26 10.75 7.47 9.51 7.87 8.33C7.89 8.28 7.93 8.25 7.98 8.25H9.13C10.03 8.25 10.76 7.51 10.76 6.6V3.9C10.76 2.99 10.03 2.25 9.13 2.25H7.67C6.03 2.25 4.53 3.21 3.84 4.7C2.52 7.57 2.25 10.26 2.25 12C2.25 14.53 2.79 16.99 3.85 19.3C4.53 20.79 6.03 21.75 7.67 21.75H9.13C10.03 21.75 10.76 21.01 10.76 20.1V17.4C10.76 16.49 10.03 15.75 9.13 15.75ZM9.26 20.1C9.26 20.18 9.2 20.25 9.13 20.25H7.67C6.61 20.25 5.65 19.63 5.21 18.67C4.24 16.56 3.75 14.31 3.75 12C3.75 10.4 4 7.95 5.21 5.32C5.65 4.36 6.62 3.75 7.67 3.75H9.13C9.2 3.75 9.26 3.82 9.26 3.9V6.6C9.26 6.68 9.2 6.75 9.13 6.75H7.98C7.29 6.75 6.67 7.19 6.45 7.84C5.99 9.18 5.75 10.58 5.75 12C5.75 13.42 5.98 14.82 6.45 16.16C6.68 16.81 7.29 17.25 7.98 17.25H9.13C9.2 17.25 9.26 17.32 9.26 17.4V20.1Z"/><path d="M21 9.24999H16.75V7.99999C16.75 7.70999 16.58 7.44999 16.33 7.31999C16.08 7.18999 15.76 7.22999 15.54 7.40999L10.54 11.41C10.36 11.55 10.26 11.77 10.26 12C10.26 12.23 10.36 12.44 10.54 12.59L15.54 16.59C15.68 16.7 15.84 16.75 16.01 16.75C16.12 16.75 16.23 16.73 16.34 16.68C16.6 16.56 16.76 16.29 16.76 16V14.75H21.01C21.42 14.75 21.76 14.41 21.76 14V9.99999C21.76 9.58999 21.42 9.24999 21.01 9.24999H21ZM20.25 13.25H16C15.59 13.25 15.25 13.59 15.25 14V14.44L12.2 12L15.25 9.55999V9.99999C15.25 10.41 15.59 10.75 16 10.75H20.25V13.25Z"/></svg>
