<svg viewBox="0 0 14 14" fill="none" xmlns="http://www.w3.org/2000/svg">
	<path d="M6.47435 13.2708H4.02435C1.74352 13.2708 0.728516 12.2558 0.728516 9.97493V7.52493C0.728516 5.2441 1.74352 4.2291 4.02435 4.2291H6.47435C8.75518 4.2291 9.77018 5.2441 9.77018 7.52493V9.97493C9.77018 12.2558 8.75518 13.2708 6.47435 13.2708ZM4.02435 5.1041C2.21602 5.1041 1.60352 5.7166 1.60352 7.52493V9.97493C1.60352 11.7833 2.21602 12.3958 4.02435 12.3958H6.47435C8.28268 12.3958 8.89518 11.7833 8.89518 9.97493V7.52493C8.89518 5.7166 8.28268 5.1041 6.47435 5.1041H4.02435Z" fill="#2A3B51"/>
	<path d="M9.9763 9.77076H9.33464C9.09547 9.77076 8.89714 9.57243 8.89714 9.33326V7.52493C8.89714 5.7166 8.28464 5.1041 6.4763 5.1041H4.66797C4.4288 5.1041 4.23047 4.90576 4.23047 4.6666V4.02493C4.23047 1.7441 5.24547 0.729095 7.5263 0.729095H9.9763C12.2571 0.729095 13.2721 1.7441 13.2721 4.02493V6.47493C13.2721 8.75576 12.2571 9.77076 9.9763 9.77076ZM9.77214 8.89576H9.9763C11.7846 8.89576 12.3971 8.28326 12.3971 6.47493V4.02493C12.3971 2.2166 11.7846 1.6041 9.9763 1.6041H7.5263C5.71797 1.6041 5.10547 2.2166 5.10547 4.02493V4.2291H6.4763C8.75714 4.2291 9.77214 5.24409 9.77214 7.52493V8.89576Z" fill="#2A3B51"/>
</svg>