<svg xmlns="http://www.w3.org/2000/svg" viewBox="0 0 24 24" fill="none" x="0px" y="0px" style="transform: scaleY(-1) translateY(-8px); transform-origin: 12px 12px;"><path d="M16.6247 4.21913C16.1934 3.87412 15.5641 3.94404 15.2191 4.37531C14.8741 4.80657 14.944 5.43586 15.3753 5.78087L19.3992 9L15.3753 12.2191C14.944 12.5641 14.8741 13.1934 15.2191 13.6247C15.5641 14.056 16.1934 14.1259 16.6247 13.7809L21.6247 9.78087C21.8619 9.5911 22 9.30378 22 9C22 8.69622 21.8619 8.4089 21.6247 8.21913L16.6247 4.21913Z" fill="#2a3b51" /><path fill-rule="evenodd" clip-rule="evenodd" d="M12.6247 4.21913C12.3245 3.979 11.9133 3.93218 11.5668 4.0987C11.2203 4.26522 11 4.6156 11 5L11 8H5C3.34315 8 2 9.34315 2 11V19C2 19.5523 2.44772 20 3 20C3.55228 20 4 19.5523 4 19V11C4 10.4477 4.44772 10 5 10H11V13C11 13.3844 11.2203 13.7348 11.5668 13.9013C11.9133 14.0678 12.3245 14.021 12.6247 13.7809L17.6247 9.78087C17.8619 9.5911 18 9.30378 18 9C18 8.69622 17.8619 8.4089 17.6247 8.21913L12.6247 4.21913ZM15.3992 9L13 10.9194V7.08063L15.3992 9Z" fill="#2a3b51"/></svg>
