<svg xmlns="http://www.w3.org/2000/svg" xmlns:xlink="http://www.w3.org/1999/xlink" version="1.1" x="0px" y="0px" viewBox="0 0 100 100" style="enable-background:new 0 0 100 100;" xml:space="preserve" fill="#2a3b51"><g><path d="M29.6,21.7c-7.2,0-13,5.8-13,13s5.8,13,13,13c7.2,0,13-5.8,13-13S36.8,21.7,29.6,21.7z M29.6,44.8c-5.5,0-10-4.5-10-10   s4.5-10,10-10c5.5,0,10,4.5,10,10S35.1,44.8,29.6,44.8z"/><path d="M35.8,59.5v-3.3c1.6-0.5,3.1-1.1,4.6-1.9l2.3,2.3c0.6,0.6,1.5,0.6,2.1,0l6.7-6.7c0.6-0.6,0.6-1.5,0-2.1l-2.3-2.3   c0.8-1.4,1.4-3,1.9-4.6h3.3c0.8,0,1.5-0.7,1.5-1.5v-9.4c0-0.8-0.7-1.5-1.5-1.5H51c-0.5-1.6-1.1-3.1-1.9-4.6l2.3-2.3   c0.6-0.6,0.6-1.5,0-2.1l-6.7-6.7c-0.6-0.6-1.5-0.6-2.1,0l-2.3,2.3c-1.4-0.8-3-1.4-4.6-1.9V10c0-0.8-0.7-1.5-1.5-1.5h-9.4   c-0.8,0-1.5,0.7-1.5,1.5v3.3c-1.6,0.5-3.1,1.1-4.6,1.9l-2.3-2.3c-0.6-0.6-1.6-0.6-2.1,0l-6.7,6.7c-0.6,0.6-0.6,1.5,0,2.1L10,24   c-0.8,1.4-1.4,3-1.9,4.6H4.9c-0.8,0-1.5,0.7-1.5,1.5v9.4C3.4,40.3,4,41,4.9,41h3.3c0.5,1.6,1.1,3.1,1.9,4.6l-2.3,2.3   c-0.6,0.6-0.6,1.5,0,2.1l6.7,6.7c0.6,0.6,1.6,0.6,2.1,0l2.3-2.3c1.4,0.8,3,1.4,4.6,1.9v3.3c0,0.8,0.7,1.5,1.5,1.5h9.4   C35.1,61,35.8,60.3,35.8,59.5z M32.8,55.1V58h-6.4v-2.9c0-0.7-0.5-1.3-1.2-1.5c-2.1-0.5-4-1.3-5.8-2.4c-0.6-0.4-1.4-0.3-1.9,0.2   l-2.1,2.1l-4.5-4.5l2.1-2.1c0.5-0.5,0.6-1.3,0.2-1.9c-1.1-1.8-1.9-3.8-2.4-5.8C10.6,38.5,10,38,9.3,38H6.4v-6.4h2.9   c0.7,0,1.3-0.5,1.5-1.2c0.5-2.1,1.3-4,2.4-5.8c0.4-0.6,0.3-1.4-0.2-1.9l-2.1-2.1l4.5-4.5l2.1,2.1c0.5,0.5,1.3,0.6,1.9,0.2   c1.8-1.1,3.8-1.9,5.8-2.4c0.7-0.2,1.2-0.8,1.2-1.5v-2.9h6.4v2.9c0,0.7,0.5,1.3,1.2,1.5c2.1,0.5,4,1.3,5.8,2.4   c0.6,0.4,1.4,0.3,1.9-0.2l2.1-2.1l4.5,4.5l-2.1,2.1c-0.5,0.5-0.6,1.3-0.2,1.9c1.1,1.8,1.9,3.8,2.4,5.8c0.2,0.7,0.8,1.2,1.5,1.2h2.9   V38h-2.9c-0.7,0-1.3,0.5-1.5,1.2c-0.5,2.1-1.3,4-2.4,5.8c-0.4,0.6-0.3,1.4,0.2,1.9l2.1,2.1l-4.5,4.5l-2.1-2.1   c-0.5-0.5-1.3-0.6-1.9-0.2C38,52.3,36,53.1,34,53.6C33.3,53.8,32.8,54.4,32.8,55.1z"/><path d="M74,47.8c-6.3,0-11.4,5.1-11.4,11.4S67.7,70.5,74,70.5c6.3,0,11.4-5.1,11.4-11.4S80.3,47.8,74,47.8z M74,67.5   c-4.6,0-8.4-3.7-8.4-8.4s3.7-8.4,8.4-8.4c4.6,0,8.4,3.7,8.4,8.4S78.6,67.5,74,67.5z"/><path d="M95.1,53.6h-2.6c-0.4-1.3-0.9-2.5-1.5-3.6l1.9-1.9c0.6-0.6,0.6-1.5,0-2.1l-5.7-5.7c-0.6-0.6-1.5-0.6-2.1,0l-1.9,1.9   c-1.2-0.6-2.4-1.1-3.6-1.5V38c0-0.8-0.7-1.5-1.5-1.5H70c-0.8,0-1.5,0.7-1.5,1.5v2.6c-1.3,0.4-2.5,0.9-3.6,1.5L63,40.2   c-0.6-0.6-1.5-0.6-2.1,0L55.1,46c-0.6,0.6-0.6,1.5,0,2.1l1.9,1.9c-0.6,1.2-1.1,2.4-1.5,3.6h-2.6c-0.8,0-1.5,0.7-1.5,1.5v8.1   c0,0.8,0.7,1.5,1.5,1.5h2.6c0.4,1.3,0.9,2.5,1.5,3.6l-1.9,1.9c-0.6,0.6-0.6,1.5,0,2.1l5.7,5.7c0.6,0.6,1.5,0.6,2.1,0l1.9-1.9   c1.2,0.6,2.4,1.1,3.6,1.5v2.6c0,0.8,0.7,1.5,1.5,1.5H78c0.8,0,1.5-0.7,1.5-1.5v-2.6c1.3-0.4,2.5-0.9,3.6-1.5L85,78   c0.6,0.6,1.5,0.6,2.1,0l5.7-5.7c0.6-0.6,0.6-1.5,0-2.1L91,68.3c0.6-1.2,1.1-2.4,1.5-3.6h2.6c0.8,0,1.5-0.7,1.5-1.5v-8.1   C96.6,54.2,96,53.6,95.1,53.6z M93.6,61.6h-2.3c-0.7,0-1.3,0.5-1.5,1.2c-0.4,1.8-1.1,3.4-2,4.9c-0.4,0.6-0.3,1.4,0.2,1.9l1.6,1.6   l-3.6,3.6l-1.6-1.6c-0.5-0.5-1.3-0.6-1.9-0.2c-1.5,1-3.2,1.6-4.9,2c-0.7,0.2-1.2,0.8-1.2,1.5v2.3h-5.1v-2.3c0-0.7-0.5-1.3-1.2-1.5   c-1.8-0.4-3.4-1.1-4.9-2c-0.6-0.4-1.4-0.3-1.9,0.2l-1.6,1.6l-3.6-3.6l1.6-1.6c0.5-0.5,0.6-1.3,0.2-1.9c-1-1.5-1.6-3.2-2-4.9   c-0.2-0.7-0.8-1.2-1.5-1.2h-2.3v-5.1h2.3c0.7,0,1.3-0.5,1.5-1.2c0.4-1.8,1.1-3.4,2-4.9c0.4-0.6,0.3-1.4-0.2-1.9L58.3,47l3.6-3.6   l1.6,1.6c0.5,0.5,1.3,0.6,1.9,0.2c1.5-1,3.2-1.6,4.9-2c0.7-0.2,1.2-0.8,1.2-1.5v-2.3h5.1v2.3c0,0.7,0.5,1.3,1.2,1.5   c1.8,0.4,3.4,1.1,4.9,2c0.6,0.4,1.4,0.3,1.9-0.2l1.6-1.6l3.6,3.6l-1.6,1.6c-0.5,0.5-0.6,1.3-0.2,1.9c1,1.5,1.6,3.2,2,4.9   c0.2,0.7,0.8,1.2,1.5,1.2h2.3V61.6z"/><path d="M40,70.6c-3.3,0-5.9,2.6-5.9,5.9s2.6,5.9,5.9,5.9c3.3,0,5.9-2.6,5.9-5.9S43.2,70.6,40,70.6z M40,79.4   c-1.6,0-2.9-1.3-2.9-2.9c0-1.6,1.3-2.9,2.9-2.9s2.9,1.3,2.9,2.9C42.9,78.1,41.6,79.4,40,79.4z"/><path d="M53.4,72.4h-1.3c-0.2-0.6-0.4-1.1-0.7-1.7l0.9-0.9c0.6-0.6,0.6-1.5,0-2.1l-3.6-3.6c-0.6-0.6-1.6-0.6-2.1,0L45.7,65   c-0.5-0.3-1.1-0.5-1.7-0.7v-1.3c0-0.8-0.7-1.5-1.5-1.5h-5.1c-0.8,0-1.5,0.7-1.5,1.5v1.3c-0.6,0.2-1.1,0.4-1.7,0.7l-0.9-0.9   c-0.3-0.3-0.7-0.4-1.1-0.4c-0.4,0-0.8,0.2-1.1,0.4l-3.6,3.6c-0.6,0.6-0.6,1.5,0,2.1l0.9,0.9c-0.3,0.5-0.5,1.1-0.7,1.7h-1.3   c-0.8,0-1.5,0.7-1.5,1.5v5.1c0,0.8,0.7,1.5,1.5,1.5h1.3c0.2,0.6,0.4,1.1,0.7,1.7l-0.9,0.9c-0.6,0.6-0.6,1.5,0,2.1l3.6,3.6   c0.6,0.6,1.6,0.6,2.1,0l0.9-0.9c0.5,0.3,1.1,0.5,1.7,0.7V90c0,0.8,0.7,1.5,1.5,1.5h5.1c0.8,0,1.5-0.7,1.5-1.5v-1.3   c0.6-0.2,1.1-0.4,1.7-0.7l0.9,0.9c0.3,0.3,0.7,0.4,1.1,0.4c0.4,0,0.8-0.2,1.1-0.4l3.6-3.6c0.6-0.6,0.6-1.5,0-2.1l-0.9-0.9   c0.3-0.5,0.5-1.1,0.7-1.7h1.3c0.8,0,1.5-0.7,1.5-1.5v-5.1C54.9,73.1,54.3,72.4,53.4,72.4z M51.9,77.6H51c-0.7,0-1.3,0.5-1.5,1.2   c-0.2,1.1-0.7,2.1-1.2,3c-0.4,0.6-0.3,1.4,0.2,1.9l0.6,0.6l-1.5,1.5L47,85.1c-0.5-0.5-1.3-0.6-1.9-0.2c-0.9,0.6-1.9,1-3,1.2   c-0.7,0.2-1.2,0.8-1.2,1.5v0.9h-2.1v-0.9c0-0.7-0.5-1.3-1.2-1.5c-1.1-0.2-2.1-0.7-3-1.2c-0.6-0.4-1.4-0.3-1.9,0.2l-0.6,0.6   l-1.5-1.5l0.6-0.6c0.5-0.5,0.6-1.3,0.2-1.9c-0.6-0.9-1-1.9-1.2-3c-0.2-0.7-0.8-1.2-1.5-1.2H28v-2.1h0.9c0.7,0,1.3-0.5,1.5-1.2   c0.2-1.1,0.7-2.1,1.2-3c0.4-0.6,0.3-1.4-0.2-1.9l-0.6-0.6l1.5-1.5l0.6,0.6c0.5,0.5,1.3,0.6,1.9,0.2c0.9-0.6,1.9-1,3-1.2   c0.7-0.2,1.2-0.8,1.2-1.5v-0.9H41v0.9c0,0.7,0.5,1.3,1.2,1.5c1.1,0.2,2.1,0.7,3,1.2c0.6,0.4,1.4,0.3,1.9-0.2l0.6-0.6l1.5,1.5   l-0.6,0.6C48,70,48,70.7,48.3,71.3c0.6,0.9,1,1.9,1.2,3c0.2,0.7,0.8,1.2,1.5,1.2h0.9V77.6z"/></g></svg>
