<svg xmlns="http://www.w3.org/2000/svg" xmlns:xlink="http://www.w3.org/1999/xlink" version="1.1" x="0px" y="0px" viewBox="0 0 100 100" style="enable-background:new 0 0 100 100;" xml:space="preserve"><path d="M47,32c0-1.657,1.343-3,3-3h9c1.657,0,3,1.343,3,3s-1.343,3-3,3h-9C48.343,35,47,33.657,47,32z"/><path d="M80,68c0,1.657-1.343,3-3,3h-9c-1.657,0-3-1.343-3-3s1.343-3,3-3h9C78.657,65,80,66.343,80,68z"/><path d="M80,44c0,1.657-1.343,3-3,3H50c-1.657,0-3-1.343-3-3s1.343-3,3-3h27C78.657,41,80,42.343,80,44z"/><path d="M80,56c0,1.657-1.343,3-3,3H50c-1.657,0-3-1.343-3-3s1.343-3,3-3h27C78.657,53,80,54.343,80,56z"/><path d="M26,65c-1.053,0-2.03,0.552-2.572,1.456l-4.635,7.725C13.192,73.044,8,77.349,8,83c0,4.963,4.037,9,9,9s9-4.037,9-9  c0-2.17-0.803-4.135-2.086-5.691L27.699,71H35v12c0,1.657,1.343,3,3,3h51c1.657,0,3-1.343,3-3V32c0-0.794-0.324-1.567-0.88-2.122  L76.122,14.88C75.567,14.325,74.795,14,74,14H38c-1.657,0-3,1.343-3,3v12h-7.301l-3.785-6.309C25.197,21.135,26,19.17,26,17  c0-4.963-4.037-9-9-9s-9,4.037-9,9c0,5.649,5.189,9.957,10.793,8.819l4.635,7.725C23.97,34.448,24.947,35,26,35h9v12h-9.553  c-1.242-3.484-4.541-6-8.447-6c-4.963,0-9,4.037-9,9s4.037,9,9,9c3.906,0,7.205-2.516,8.447-6H35v12H26z M17,86  c-1.654,0-3-1.346-3-3s1.346-3,3-3s3,1.346,3,3S18.654,86,17,86z M77,24.242L81.758,29H77V24.242z M41,20h30v12c0,1.657,1.343,3,3,3  h12v45H41V20z M17,20c-1.654,0-3-1.346-3-3s1.346-3,3-3s3,1.346,3,3S18.654,20,17,20z M17,53c-1.654,0-3-1.346-3-3s1.346-3,3-3  s3,1.346,3,3S18.654,53,17,53z"/></svg>
