<svg
  width="24"
  height="24"
  viewBox="0 0 24 24"
  fill="none"
  xmlns="http://www.w3.org/2000/svg"
>
  <path
    d="M23.5625 12C23.5625 18.3858 18.3858 23.5625 12 23.5625C5.61421 23.5625 0.4375 18.3858 0.4375 12C0.4375 5.61421 5.61421 0.4375 12 0.4375C18.3858 0.4375 23.5625 5.61421 23.5625 12Z"
    fill="#21BC27"
    stroke="#21BC27"
    stroke-width="0.875"
  />
  <path
    d="M18.35 13.7436L18.35 13.7437L18.3579 13.7471C18.4697 13.7941 18.5594 13.8833 18.6155 14.0038C18.6561 14.1153 18.6526 14.2417 18.6079 14.3422L19.0077 14.5199L18.6079 14.3422C18.5764 14.4131 18.5441 14.4608 18.5064 14.4985L18.8157 14.8078L18.5064 14.4985L14.8584 18.1465C14.7648 18.2401 14.6499 18.2824 14.5317 18.2824C14.4135 18.2824 14.2987 18.2401 14.2051 18.1465C14.0279 17.9694 14.0279 17.6704 14.2051 17.4932L16.3171 15.3812L17.0639 14.6344H16.0077H5.80771C5.55734 14.6344 5.34521 14.4222 5.34521 14.1719C5.34521 13.9215 5.55734 13.7094 5.80771 13.7094H18.1797C18.2426 13.7094 18.3016 13.7221 18.35 13.7436Z"
    fill="#21BC27"
    stroke="white"
    stroke-width="0.875"
  />
  <path
    d="M7.67036 8.60701L6.92348 9.35387H7.97971H18.1797C18.4459 9.35387 18.6542 9.56976 18.6542 9.81637C18.6542 10.0667 18.4421 10.2789 18.1917 10.2789H5.81973C5.75682 10.2789 5.69781 10.2661 5.64941 10.2446L5.64944 10.2445L5.64149 10.2412C5.52671 10.1928 5.43523 10.1001 5.37951 9.97469C5.33378 9.87181 5.33378 9.74896 5.37951 9.64608L4.97971 9.4684L5.37951 9.64608C5.41107 9.57506 5.4434 9.52741 5.48108 9.48973L9.12909 5.84172C9.30623 5.66458 9.60522 5.66458 9.78237 5.84172C9.95951 6.01887 9.95951 6.31789 9.78237 6.49503L7.67036 8.60701Z"
    fill="#21BC27"
    stroke="white"
    stroke-width="0.875"
  />
</svg>