<svg
  width="27"
  height="24"
  viewBox="0 0 27 24"
  fill="none"
  xmlns="http://www.w3.org/2000/svg"
>
  <path
    d="M21.1321 20H6.10263C5.53319 20 4.98708 19.7893 4.58443 19.4142C4.18177 19.0391 3.95557 18.5304 3.95557 18V9C3.95557 8.46957 4.18177 7.96086 4.58443 7.58579C4.98708 7.21071 5.53319 7 6.10263 7H21.1321C21.7015 7 22.2476 7.21071 22.6503 7.58579C23.0529 7.96086 23.2791 8.46957 23.2791 9V18C23.2791 18.5304 23.0529 19.0391 22.6503 19.4142C22.2476 19.7893 21.7015 20 21.1321 20Z"
    stroke="#8C8C8C"
    stroke-width="1.5"
  />
  <path
    d="M18.4479 14C18.3055 14 18.169 13.9473 18.0683 13.8536C17.9677 13.7598 17.9111 13.6326 17.9111 13.5C17.9111 13.3674 17.9677 13.2402 18.0683 13.1464C18.169 13.0527 18.3055 13 18.4479 13C18.5903 13 18.7268 13.0527 18.8274 13.1464C18.9281 13.2402 18.9847 13.3674 18.9847 13.5C18.9847 13.6326 18.9281 13.7598 18.8274 13.8536C18.7268 13.9473 18.5903 14 18.4479 14Z"
    fill="#8C8C8C"
    stroke="#8C8C8C"
    stroke-width="1.5"
    stroke-linecap="round"
    stroke-linejoin="round"
  />
  <path
    d="M20.0585 6.99999V5.60299C20.0584 5.29649 19.9827 4.99411 19.8372 4.71921C19.6917 4.4443 19.4804 4.20422 19.2194 4.0175C18.9585 3.83079 18.655 3.70243 18.3323 3.64235C18.0097 3.58227 17.6765 3.59207 17.3586 3.67099L5.54976 6.60399C5.09249 6.7175 4.68829 6.96855 4.4 7.31812C4.1117 7.66768 3.95546 8.09618 3.95557 8.53699V8.99999"
    stroke="#8C8C8C"
    stroke-width="1.5"
  />
</svg>
