<svg width="24" height="24" viewBox="0 0 24 24" fill="none" xmlns="http://www.w3.org/2000/svg">
<g clip-path="url(#clip0_1001_1198)">
<path d="M12 24C18.6274 24 24 18.6274 24 12C24 5.37258 18.6274 0 12 0C5.37258 0 0 5.37258 0 12C0 18.6274 5.37258 24 12 24Z" fill="#0D1E30"/>
<g filter="url(#filter0_d_1001_1198)">
<path d="M11.7937 4.54499C12.153 4.35974 12.5917 4.78799 12.4012 5.14124C12.2895 5.42924 11.8687 5.50574 11.6542 5.28599C11.427 5.07599 11.5012 4.65899 11.7937 4.54424V4.54499ZM7.92747 4.95449C8.14572 4.86599 8.42247 5.06249 8.39997 5.29724C8.42247 5.55074 8.10747 5.73824 7.88472 5.61749C7.58997 5.50499 7.62372 5.03399 7.92747 4.95449ZM15.846 5.62424C15.5047 5.58374 15.4507 5.05574 15.7785 4.94924C16.0335 4.82774 16.2675 5.05649 16.305 5.29424C16.251 5.49674 16.0785 5.68274 15.846 5.62424ZM8.80722 6.57299C9.17247 6.34574 9.69297 6.68399 9.63672 7.10174C9.61797 7.52249 9.04947 7.76699 8.72847 7.48199C8.41797 7.25849 8.46522 6.74549 8.80722 6.57299ZM14.3797 6.81449C14.5425 6.40199 15.2025 6.38849 15.3877 6.79049C15.5715 7.10324 15.3457 7.49099 15.0195 7.59749C14.5867 7.67699 14.1765 7.21649 14.3797 6.81449ZM11.328 7.57424C11.3242 7.21874 11.6527 6.95474 11.9955 6.92999C12.2235 6.97499 12.471 7.07024 12.5685 7.29599C12.7507 7.60799 12.5887 8.03624 12.261 8.17949C12.111 8.26199 11.9325 8.23124 11.769 8.22149C11.5192 8.10149 11.3085 7.86374 11.328 7.57424ZM5.57847 8.09174C5.91222 7.88924 6.36222 8.25674 6.23547 8.61374C6.16647 8.92199 5.74497 9.04724 5.50422 8.85074C5.24697 8.66624 5.28747 8.22299 5.57922 8.09099L5.57847 8.09174ZM17.925 8.09024C18.2077 7.87424 18.675 8.12249 18.6405 8.47349C18.66 8.79374 18.2557 9.03599 17.9752 8.87099C17.6662 8.73374 17.634 8.26574 17.925 8.09099V8.09024ZM12.945 8.72849C13.4115 8.56349 13.9665 8.76074 14.232 9.17099C14.583 9.67124 14.397 10.4332 13.8517 10.7205C13.2877 11.0602 12.4635 10.773 12.2542 10.152C12.018 9.59699 12.363 8.90249 12.9442 8.72849H12.945ZM10.2052 8.78324C10.7227 8.54324 11.4195 8.74424 11.6692 9.26474C11.9632 9.77174 11.736 10.4775 11.2102 10.7392C10.6837 11.034 9.94047 10.8105 9.68622 10.2667C9.40047 9.74024 9.65397 9.02549 10.2052 8.78324ZM7.46247 9.70499C7.50222 9.37724 7.81647 9.16349 8.13372 9.14099C8.29918 9.15847 8.4538 9.23155 8.57233 9.34831C8.69085 9.46506 8.76626 9.61857 8.78622 9.78374C8.76372 10.1212 8.49897 10.4497 8.13597 10.4482C7.73622 10.482 7.38597 10.0905 7.46247 9.70499ZM15.564 9.21299C15.9742 8.97824 16.5435 9.31949 16.5255 9.78299C16.5532 10.2742 15.9232 10.62 15.5152 10.332C15.0907 10.092 15.1237 9.41699 15.564 9.21299ZM9.09147 10.9432C9.56997 10.8135 10.119 11.0355 10.3537 11.469C10.611 11.9055 10.506 12.5115 10.1062 12.8325C9.59247 13.302 8.64672 13.113 8.37372 12.4725C8.05947 11.8852 8.44122 11.0977 9.09072 10.9425L9.09147 10.9432ZM14.2867 10.941C14.7525 10.8097 15.3 10.986 15.5505 11.4037C15.882 11.8815 15.7237 12.5947 15.231 12.9022C14.7135 13.26 13.914 13.0725 13.629 12.513C13.284 11.9347 13.6312 11.1172 14.2867 10.941ZM6.00672 11.4855C6.42072 11.3317 6.87972 11.781 6.71172 12.1852C6.60972 12.5527 6.08247 12.6892 5.81022 12.4177C5.49147 12.1627 5.60922 11.5965 6.00672 11.4855ZM17.2335 12.072C17.2257 11.9069 17.2834 11.7454 17.3941 11.6226C17.5048 11.4999 17.6595 11.4258 17.8245 11.4165C18.108 11.4615 18.384 11.6865 18.3615 11.9902C18.3877 12.3915 17.8965 12.6637 17.5485 12.4755C17.3857 12.3937 17.3025 12.2295 17.2335 12.072ZM3.97047 11.685C4.21947 11.5777 4.52772 11.79 4.47072 12.0622C4.45722 12.3705 3.99447 12.4897 3.82497 12.2317C3.67497 12.0525 3.76497 11.7772 3.97047 11.6842V11.685ZM19.6822 11.6782C19.8577 11.556 20.1397 11.6437 20.2087 11.8455C20.3265 12.066 20.1105 12.3675 19.8585 12.3307C19.5045 12.3622 19.3905 11.832 19.6822 11.6782ZM10.4445 13.158C11.1 12.9907 11.805 13.5285 11.8095 14.193C11.8515 14.8642 11.157 15.459 10.4865 15.3045C9.96747 15.222 9.56022 14.73 9.57747 14.2147C9.57597 13.7212 9.95397 13.2622 10.4445 13.158ZM13.041 13.1572C13.7062 12.9742 14.4322 13.5217 14.4217 14.2012C14.457 14.8597 13.7842 15.435 13.1272 15.3037C12.5085 15.2257 12.0525 14.5575 12.225 13.9665C12.312 13.5735 12.6465 13.254 13.041 13.1565V13.1572ZM8.03397 13.566C8.49447 13.4887 8.92647 13.9935 8.73972 14.424C8.60322 14.883 7.92522 15.0067 7.62522 14.6325C7.27422 14.2725 7.53672 13.6155 8.03397 13.566ZM15.6495 13.5862C16.0605 13.4167 16.5645 13.7662 16.533 14.205C16.5495 14.6872 15.927 15.0202 15.5257 14.7382C15.0705 14.4855 15.1537 13.7407 15.6495 13.5862ZM17.778 15.6862C17.6175 15.3915 17.9092 15.0007 18.243 15.0555C18.408 15.0525 18.5242 15.1807 18.63 15.2887C18.6517 15.4635 18.6885 15.672 18.5407 15.8062C18.3405 16.056 17.8867 15.9847 17.778 15.6862ZM5.57697 15.1372C5.88822 14.934 6.33597 15.2377 6.26547 15.5947C6.22797 15.912 5.82297 16.0927 5.55672 15.9127C5.27022 15.75 5.28072 15.2857 5.57697 15.1372ZM11.7217 15.7995C12.129 15.6232 12.648 15.972 12.609 16.413C12.639 16.9005 11.9977 17.238 11.5995 16.9455C11.157 16.6942 11.2312 15.9547 11.7217 15.7995ZM8.87622 16.4527C9.22272 16.2735 9.68772 16.5832 9.65622 16.9657C9.66672 17.2792 9.35622 17.5462 9.04122 17.4997C8.78097 17.4945 8.61147 17.2642 8.52747 17.046C8.53197 16.8082 8.63172 16.5435 8.87622 16.4535V16.4527ZM14.6407 16.4587C14.9977 16.2412 15.5047 16.5532 15.471 16.9612C15.48 17.3887 14.907 17.6617 14.5747 17.3812C14.2537 17.1615 14.2927 16.6335 14.6407 16.4587ZM15.6435 18.8962C15.4845 18.6607 15.6712 18.3765 15.9285 18.3225C16.1362 18.3637 16.356 18.5175 16.3117 18.753C16.2817 19.0732 15.8062 19.1707 15.6435 18.897V18.8962ZM7.68522 18.6915C7.74822 18.504 7.90122 18.3187 8.12547 18.3675C8.45172 18.39 8.54847 18.8745 8.26272 19.0237C8.00622 19.194 7.70772 18.9607 7.68522 18.6915ZM11.5252 18.9067C11.5875 18.6292 11.9512 18.495 12.1912 18.642C12.3502 18.7095 12.3967 18.8835 12.4372 19.032C12.4158 19.1091 12.3958 19.1866 12.3772 19.2645C12.279 19.3785 12.1522 19.4932 11.9887 19.4895C11.685 19.5247 11.4105 19.1865 11.5245 18.9067H11.5252Z" fill="black"/>
</g>
<path d="M11.7937 4.54499C12.153 4.35974 12.5917 4.78799 12.4012 5.14124C12.2895 5.42924 11.8687 5.50574 11.6542 5.28599C11.427 5.07599 11.5012 4.65899 11.7937 4.54424V4.54499ZM7.92747 4.95449C8.14572 4.86599 8.42247 5.06249 8.39997 5.29724C8.42247 5.55074 8.10747 5.73824 7.88472 5.61749C7.58997 5.50499 7.62372 5.03399 7.92747 4.95449ZM15.846 5.62424C15.5047 5.58374 15.4507 5.05574 15.7785 4.94924C16.0335 4.82774 16.2675 5.05649 16.305 5.29424C16.251 5.49674 16.0785 5.68274 15.846 5.62424ZM8.80722 6.57299C9.17247 6.34574 9.69297 6.68399 9.63672 7.10174C9.61797 7.52249 9.04947 7.76699 8.72847 7.48199C8.41797 7.25849 8.46522 6.74549 8.80722 6.57299ZM14.3797 6.81449C14.5425 6.40199 15.2025 6.38849 15.3877 6.79049C15.5715 7.10324 15.3457 7.49099 15.0195 7.59749C14.5867 7.67699 14.1765 7.21649 14.3797 6.81449ZM11.328 7.57424C11.3242 7.21874 11.6527 6.95474 11.9955 6.92999C12.2235 6.97499 12.471 7.07024 12.5685 7.29599C12.7507 7.60799 12.5887 8.03624 12.261 8.17949C12.111 8.26199 11.9325 8.23124 11.769 8.22149C11.5192 8.10149 11.3085 7.86374 11.328 7.57424ZM5.57847 8.09174C5.91222 7.88924 6.36222 8.25674 6.23547 8.61374C6.16647 8.92199 5.74497 9.04724 5.50422 8.85074C5.24697 8.66624 5.28747 8.22299 5.57922 8.09099L5.57847 8.09174ZM17.925 8.09024C18.2077 7.87424 18.675 8.12249 18.6405 8.47349C18.66 8.79374 18.2557 9.03599 17.9752 8.87099C17.6662 8.73374 17.634 8.26574 17.925 8.09099V8.09024ZM12.945 8.72849C13.4115 8.56349 13.9665 8.76074 14.232 9.17099C14.583 9.67124 14.397 10.4332 13.8517 10.7205C13.2877 11.0602 12.4635 10.773 12.2542 10.152C12.018 9.59699 12.363 8.90249 12.9442 8.72849H12.945ZM10.2052 8.78324C10.7227 8.54324 11.4195 8.74424 11.6692 9.26474C11.9632 9.77174 11.736 10.4775 11.2102 10.7392C10.6837 11.034 9.94047 10.8105 9.68622 10.2667C9.40047 9.74024 9.65397 9.02549 10.2052 8.78324ZM7.46247 9.70499C7.50222 9.37724 7.81647 9.16349 8.13372 9.14099C8.29918 9.15847 8.4538 9.23155 8.57233 9.34831C8.69085 9.46506 8.76626 9.61857 8.78622 9.78374C8.76372 10.1212 8.49897 10.4497 8.13597 10.4482C7.73622 10.482 7.38597 10.0905 7.46247 9.70499ZM15.564 9.21299C15.9742 8.97824 16.5435 9.31949 16.5255 9.78299C16.5532 10.2742 15.9232 10.62 15.5152 10.332C15.0907 10.092 15.1237 9.41699 15.564 9.21299ZM9.09147 10.9432C9.56997 10.8135 10.119 11.0355 10.3537 11.469C10.611 11.9055 10.506 12.5115 10.1062 12.8325C9.59247 13.302 8.64672 13.113 8.37372 12.4725C8.05947 11.8852 8.44122 11.0977 9.09072 10.9425L9.09147 10.9432ZM14.2867 10.941C14.7525 10.8097 15.3 10.986 15.5505 11.4037C15.882 11.8815 15.7237 12.5947 15.231 12.9022C14.7135 13.26 13.914 13.0725 13.629 12.513C13.284 11.9347 13.6312 11.1172 14.2867 10.941ZM6.00672 11.4855C6.42072 11.3317 6.87972 11.781 6.71172 12.1852C6.60972 12.5527 6.08247 12.6892 5.81022 12.4177C5.49147 12.1627 5.60922 11.5965 6.00672 11.4855ZM17.2335 12.072C17.2257 11.9069 17.2834 11.7454 17.3941 11.6226C17.5048 11.4999 17.6595 11.4258 17.8245 11.4165C18.108 11.4615 18.384 11.6865 18.3615 11.9902C18.3877 12.3915 17.8965 12.6637 17.5485 12.4755C17.3857 12.3937 17.3025 12.2295 17.2335 12.072ZM3.97047 11.685C4.21947 11.5777 4.52772 11.79 4.47072 12.0622C4.45722 12.3705 3.99447 12.4897 3.82497 12.2317C3.67497 12.0525 3.76497 11.7772 3.97047 11.6842V11.685ZM19.6822 11.6782C19.8577 11.556 20.1397 11.6437 20.2087 11.8455C20.3265 12.066 20.1105 12.3675 19.8585 12.3307C19.5045 12.3622 19.3905 11.832 19.6822 11.6782ZM10.4445 13.158C11.1 12.9907 11.805 13.5285 11.8095 14.193C11.8515 14.8642 11.157 15.459 10.4865 15.3045C9.96747 15.222 9.56022 14.73 9.57747 14.2147C9.57597 13.7212 9.95397 13.2622 10.4445 13.158ZM13.041 13.1572C13.7062 12.9742 14.4322 13.5217 14.4217 14.2012C14.457 14.8597 13.7842 15.435 13.1272 15.3037C12.5085 15.2257 12.0525 14.5575 12.225 13.9665C12.312 13.5735 12.6465 13.254 13.041 13.1565V13.1572ZM8.03397 13.566C8.49447 13.4887 8.92647 13.9935 8.73972 14.424C8.60322 14.883 7.92522 15.0067 7.62522 14.6325C7.27422 14.2725 7.53672 13.6155 8.03397 13.566ZM15.6495 13.5862C16.0605 13.4167 16.5645 13.7662 16.533 14.205C16.5495 14.6872 15.927 15.0202 15.5257 14.7382C15.0705 14.4855 15.1537 13.7407 15.6495 13.5862ZM17.778 15.6862C17.6175 15.3915 17.9092 15.0007 18.243 15.0555C18.408 15.0525 18.5242 15.1807 18.63 15.2887C18.6517 15.4635 18.6885 15.672 18.5407 15.8062C18.3405 16.056 17.8867 15.9847 17.778 15.6862ZM5.57697 15.1372C5.88822 14.934 6.33597 15.2377 6.26547 15.5947C6.22797 15.912 5.82297 16.0927 5.55672 15.9127C5.27022 15.75 5.28072 15.2857 5.57697 15.1372ZM11.7217 15.7995C12.129 15.6232 12.648 15.972 12.609 16.413C12.639 16.9005 11.9977 17.238 11.5995 16.9455C11.157 16.6942 11.2312 15.9547 11.7217 15.7995ZM8.87622 16.4527C9.22272 16.2735 9.68772 16.5832 9.65622 16.9657C9.66672 17.2792 9.35622 17.5462 9.04122 17.4997C8.78097 17.4945 8.61147 17.2642 8.52747 17.046C8.53197 16.8082 8.63172 16.5435 8.87622 16.4535V16.4527ZM14.6407 16.4587C14.9977 16.2412 15.5047 16.5532 15.471 16.9612C15.48 17.3887 14.907 17.6617 14.5747 17.3812C14.2537 17.1615 14.2927 16.6335 14.6407 16.4587ZM15.6435 18.8962C15.4845 18.6607 15.6712 18.3765 15.9285 18.3225C16.1362 18.3637 16.356 18.5175 16.3117 18.753C16.2817 19.0732 15.8062 19.1707 15.6435 18.897V18.8962ZM7.68522 18.6915C7.74822 18.504 7.90122 18.3187 8.12547 18.3675C8.45172 18.39 8.54847 18.8745 8.26272 19.0237C8.00622 19.194 7.70772 18.9607 7.68522 18.6915ZM11.5252 18.9067C11.5875 18.6292 11.9512 18.495 12.1912 18.642C12.3502 18.7095 12.3967 18.8835 12.4372 19.032C12.4158 19.1091 12.3958 19.1866 12.3772 19.2645C12.279 19.3785 12.1522 19.4932 11.9887 19.4895C11.685 19.5247 11.4105 19.1865 11.5245 18.9067H11.5252Z" fill="white"/>
</g>
<defs>
<filter id="filter0_d_1001_1198" x="2.75031" y="4.00031" width="18.4915" height="16.9918" filterUnits="userSpaceOnUse" color-interpolation-filters="sRGB">
<feFlood flood-opacity="0" result="BackgroundImageFix"/>
<feColorMatrix in="SourceAlpha" type="matrix" values="0 0 0 0 0 0 0 0 0 0 0 0 0 0 0 0 0 0 127 0" result="hardAlpha"/>
<feOffset dy="0.5"/>
<feGaussianBlur stdDeviation="0.5"/>
<feColorMatrix type="matrix" values="0 0 0 0 0 0 0 0 0 0 0 0 0 0 0 0 0 0 0.204257 0"/>
<feBlend mode="normal" in2="BackgroundImageFix" result="effect1_dropShadow_1001_1198"/>
<feBlend mode="normal" in="SourceGraphic" in2="effect1_dropShadow_1001_1198" result="shape"/>
</filter>
<clipPath id="clip0_1001_1198">
<rect width="24" height="24" fill="white"/>
</clipPath>
</defs>
</svg>
