<svg width="36" height="36" viewBox="0 0 36 36" fill="none" xmlns="http://www.w3.org/2000/svg">
<path d="M35 18C35 27.3888 27.3888 35 18 35C8.61116 35 1 27.3888 1 18C1 8.61116 8.61116 1 18 1C27.3888 1 35 8.61116 35 18Z" stroke="#767EB4" stroke-width="2"/>
<path d="M27.3954 20.9337L27.3864 20.9297C27.3606 20.9182 27.3201 20.9079 27.2705 20.9079H8.71255C8.52683 20.9079 8.36255 21.0722 8.36255 21.2579C8.36255 21.4436 8.52683 21.6079 8.71255 21.6079H24.0126H26.4268L24.7197 23.315L21.5516 26.483C21.4202 26.6145 21.4202 26.8453 21.5516 26.9768C21.6242 27.0494 21.7074 27.0799 21.7985 27.0799C21.8897 27.0799 21.9729 27.0494 22.0455 26.9768M27.3954 20.9337L22.0455 26.9768M27.3954 20.9337L27.4045 20.9375C27.482 20.9702 27.5542 21.0337 27.6057 21.1367C27.6328 21.2215 27.626 21.3124 27.5987 21.3738C27.5644 21.4511 27.5376 21.4846 27.5174 21.5048L28.2245 22.2119L27.5174 21.5048L22.0455 26.9768M27.3954 20.9337L22.7526 27.6839L22.0455 26.9768" fill="#C47789" stroke="#C47789" stroke-width="2"/>
<path d="M11.2634 12.6668L9.55631 14.3739H11.9705H27.2705C27.4829 14.3739 27.6386 14.5468 27.6386 14.7239C27.6386 14.9097 27.4743 15.0739 27.2886 15.0739H8.73057C8.68106 15.0739 8.64049 15.0636 8.6147 15.0521L8.60569 15.0481L8.59661 15.0443C8.51338 15.0093 8.4363 14.9387 8.38436 14.8218C8.35528 14.7564 8.35528 14.6736 8.38436 14.6081C8.41879 14.5307 8.44553 14.4972 8.46566 14.4771L13.9377 9.00504C14.0692 8.87356 14.3 8.87356 14.4315 9.00504C14.5629 9.13651 14.5629 9.36739 14.4315 9.49887C14.4315 9.49887 14.4315 9.49887 14.4315 9.49888L11.2634 12.6668Z" fill="#C47789" stroke="#C47789" stroke-width="2"/>
</svg>
