<svg width="149" height="35" viewBox="0 0 149 35" fill="none" xmlns="http://www.w3.org/2000/svg">
<path d="M2.028 26V9.152H10.608C12.6707 9.152 14.248 9.542 15.34 10.322C16.4493 11.0847 17.004 12.194 17.004 13.65C17.004 14.586 16.7873 15.3313 16.354 15.886C15.938 16.4233 15.34 16.8307 14.56 17.108C13.78 17.368 12.8613 17.5327 11.804 17.602L11.908 17.446C12.6707 17.4633 13.39 17.5327 14.066 17.654C14.7593 17.758 15.366 17.9487 15.886 18.226C16.4233 18.5033 16.8393 18.8933 17.134 19.396C17.446 19.8813 17.602 20.514 17.602 21.294C17.602 22.334 17.342 23.192 16.822 23.868C16.302 24.544 15.5827 25.064 14.664 25.428C13.7453 25.7747 12.688 25.9653 11.492 26H2.028ZM4.992 23.478H11.05C12.1767 23.478 13.052 23.2873 13.676 22.906C14.3 22.5073 14.612 21.892 14.612 21.06C14.612 20.4013 14.4213 19.9247 14.04 19.63C13.6587 19.318 13.1647 19.1187 12.558 19.032C11.9687 18.9453 11.336 18.902 10.66 18.902H4.992V23.478ZM4.992 16.432H10.426C11.5527 16.432 12.4193 16.2413 13.026 15.86C13.65 15.4613 13.962 14.8373 13.962 13.988C13.962 13.156 13.65 12.5667 13.026 12.22C12.4193 11.856 11.622 11.674 10.634 11.674H4.992V16.432ZM31.1155 21.736H33.8975C33.7588 22.62 33.4122 23.4087 32.8575 24.102C32.3202 24.778 31.5835 25.3153 30.6475 25.714C29.7115 26.0953 28.5935 26.286 27.2935 26.286C25.8202 26.286 24.5028 26.0173 23.3415 25.48C22.1802 24.9253 21.2702 24.1453 20.6115 23.14C19.9528 22.1347 19.6235 20.9387 19.6235 19.552C19.6235 18.1827 19.9442 16.9867 20.5855 15.964C21.2268 14.9413 22.1108 14.1527 23.2375 13.598C24.3815 13.0433 25.6988 12.766 27.1895 12.766C28.7322 12.766 30.0148 13.0433 31.0375 13.598C32.0775 14.1353 32.8488 14.95 33.3515 16.042C33.8542 17.1167 34.0622 18.4773 33.9755 20.124H22.5615C22.6482 20.852 22.8822 21.5107 23.2635 22.1C23.6622 22.672 24.1995 23.1227 24.8755 23.452C25.5515 23.764 26.3402 23.92 27.2415 23.92C28.2468 23.92 29.0875 23.7207 29.7635 23.322C30.4568 22.9233 30.9075 22.3947 31.1155 21.736ZM27.1115 15.106C25.9328 15.106 24.9622 15.4007 24.1995 15.99C23.4368 16.562 22.9428 17.2987 22.7175 18.2H31.0635C30.9942 17.2293 30.6042 16.4753 29.8935 15.938C29.1828 15.3833 28.2555 15.106 27.1115 15.106ZM35.4364 13.052H44.5884V15.418H35.4364V13.052ZM38.5564 9.568H41.4684V26H38.5564V9.568ZM45.9481 13.052H55.1001V15.418H45.9481V13.052ZM49.0681 9.568H51.9801V26H49.0681V9.568ZM67.9827 21.736H70.7647C70.626 22.62 70.2794 23.4087 69.7247 24.102C69.1874 24.778 68.4507 25.3153 67.5147 25.714C66.5787 26.0953 65.4607 26.286 64.1607 26.286C62.6874 26.286 61.37 26.0173 60.2087 25.48C59.0474 24.9253 58.1374 24.1453 57.4787 23.14C56.82 22.1347 56.4907 20.9387 56.4907 19.552C56.4907 18.1827 56.8114 16.9867 57.4527 15.964C58.094 14.9413 58.978 14.1527 60.1047 13.598C61.2487 13.0433 62.566 12.766 64.0567 12.766C65.5994 12.766 66.882 13.0433 67.9047 13.598C68.9447 14.1353 69.716 14.95 70.2187 16.042C70.7214 17.1167 70.9294 18.4773 70.8427 20.124H59.4287C59.5154 20.852 59.7494 21.5107 60.1307 22.1C60.5294 22.672 61.0667 23.1227 61.7427 23.452C62.4187 23.764 63.2074 23.92 64.1087 23.92C65.114 23.92 65.9547 23.7207 66.6307 23.322C67.324 22.9233 67.7747 22.3947 67.9827 21.736ZM63.9787 15.106C62.8 15.106 61.8294 15.4007 61.0667 15.99C60.304 16.562 59.81 17.2987 59.5847 18.2H67.9307C67.8614 17.2293 67.4714 16.4753 66.7607 15.938C66.05 15.3833 65.1227 15.106 63.9787 15.106ZM73.4167 13.052H76.3027V26H73.4167V13.052ZM80.9827 15.522C80.0467 15.522 79.2407 15.7213 78.5647 16.12C77.906 16.5187 77.3774 17.004 76.9787 17.576C76.58 18.148 76.3027 18.7027 76.1467 19.24L76.1207 17.784C76.138 17.5933 76.1987 17.3073 76.3027 16.926C76.4067 16.5273 76.5627 16.094 76.7707 15.626C76.996 15.158 77.2907 14.7073 77.6547 14.274C78.036 13.8233 78.4954 13.4593 79.0327 13.182C79.5874 12.9047 80.2374 12.766 80.9827 12.766V15.522Z" fill="#4F82CA"/>
<path d="M82.4647 20.41H85.3507C85.42 21.0513 85.6714 21.632 86.1047 22.152C86.5554 22.6547 87.1447 23.0533 87.8727 23.348C88.618 23.6253 89.4674 23.764 90.4207 23.764C91.27 23.764 91.972 23.66 92.5267 23.452C93.0814 23.244 93.4887 22.958 93.7487 22.594C94.026 22.2127 94.1647 21.7707 94.1647 21.268C94.1647 20.7653 94 20.3753 93.6707 20.098C93.3587 19.8033 92.8734 19.5607 92.2147 19.37C91.556 19.162 90.7154 18.9627 89.6927 18.772C88.8434 18.616 88.02 18.408 87.2227 18.148C86.4254 17.888 85.706 17.5587 85.0647 17.16C84.4407 16.7613 83.9467 16.276 83.5827 15.704C83.2187 15.1147 83.0367 14.4213 83.0367 13.624C83.0367 12.7227 83.288 11.908 83.7907 11.18C84.3107 10.452 85.0734 9.88 86.0787 9.464C87.084 9.048 88.306 8.84 89.7447 8.84C91.946 8.84 93.6274 9.35133 94.7887 10.374C95.95 11.3793 96.5134 12.7487 96.4787 14.482H93.6447C93.5927 13.39 93.194 12.6013 92.4487 12.116C91.7034 11.6307 90.7587 11.388 89.6147 11.388C88.592 11.388 87.734 11.57 87.0407 11.934C86.3474 12.298 86.0007 12.8873 86.0007 13.702C86.0007 14.0487 86.0787 14.352 86.2347 14.612C86.408 14.8547 86.6854 15.08 87.0667 15.288C87.448 15.4787 87.968 15.6693 88.6267 15.86C89.3027 16.0333 90.126 16.224 91.0967 16.432C91.9287 16.5707 92.7087 16.7613 93.4367 17.004C94.1647 17.2467 94.7974 17.55 95.3347 17.914C95.8894 18.278 96.3227 18.746 96.6347 19.318C96.9467 19.89 97.1027 20.592 97.1027 21.424C97.1027 22.3773 96.86 23.2267 96.3747 23.972C95.8894 24.7 95.144 25.2807 94.1387 25.714C93.1507 26.13 91.868 26.338 90.2907 26.338C89.0947 26.338 88.046 26.1993 87.1447 25.922C86.2607 25.6273 85.5067 25.2547 84.8827 24.804C84.2587 24.336 83.756 23.8333 83.3747 23.296C83.0107 22.7587 82.7507 22.2387 82.5947 21.736C82.456 21.216 82.4127 20.774 82.4647 20.41ZM113.683 20.982C113.579 22.0913 113.223 23.0447 112.617 23.842C112.01 24.6393 111.195 25.246 110.173 25.662C109.167 26.078 108.006 26.286 106.689 26.286C105.267 26.286 103.976 26.026 102.815 25.506C101.671 24.986 100.761 24.2233 100.085 23.218C99.4088 22.2127 99.0708 20.9907 99.0708 19.552C99.0708 18.1133 99.4088 16.8913 100.085 15.886C100.761 14.8807 101.671 14.1093 102.815 13.572C103.976 13.0347 105.267 12.766 106.689 12.766C108.006 12.766 109.167 12.9827 110.173 13.416C111.178 13.832 111.984 14.43 112.591 15.21C113.197 15.99 113.553 16.9347 113.657 18.044H111.005C110.71 17.1253 110.173 16.4147 109.393 15.912C108.63 15.392 107.729 15.132 106.689 15.132C105.839 15.132 105.059 15.3053 104.349 15.652C103.638 15.9813 103.066 16.4753 102.633 17.134C102.217 17.7753 102.009 18.5813 102.009 19.552C102.009 20.5053 102.217 21.3113 102.633 21.97C103.066 22.6287 103.638 23.1227 104.349 23.452C105.059 23.764 105.839 23.92 106.689 23.92C107.833 23.92 108.769 23.6687 109.497 23.166C110.242 22.646 110.753 21.918 111.031 20.982H113.683ZM121.997 26.286C120.819 26.286 119.735 26 118.747 25.428C117.777 24.856 116.997 24.0673 116.407 23.062C115.835 22.0393 115.549 20.8693 115.549 19.552C115.549 18.2 115.844 17.0213 116.433 16.016C117.023 14.9933 117.82 14.196 118.825 13.624C119.831 13.052 120.957 12.766 122.205 12.766C123.592 12.766 124.693 13.0693 125.507 13.676C126.322 14.2827 126.903 15.0973 127.249 16.12C127.596 17.1427 127.769 18.2867 127.769 19.552C127.769 20.2627 127.665 21.0167 127.457 21.814C127.249 22.594 126.92 23.322 126.469 23.998C126.036 24.674 125.447 25.2287 124.701 25.662C123.973 26.078 123.072 26.286 121.997 26.286ZM122.881 23.894C123.852 23.894 124.675 23.712 125.351 23.348C126.045 22.9667 126.565 22.4467 126.911 21.788C127.275 21.1293 127.457 20.384 127.457 19.552C127.457 18.6333 127.275 17.8533 126.911 17.212C126.547 16.5533 126.027 16.0507 125.351 15.704C124.675 15.34 123.852 15.158 122.881 15.158C121.495 15.158 120.42 15.5653 119.657 16.38C118.895 17.1947 118.513 18.252 118.513 19.552C118.513 20.4013 118.695 21.1553 119.059 21.814C119.441 22.4727 119.961 22.984 120.619 23.348C121.278 23.712 122.032 23.894 122.881 23.894ZM127.457 13.052H130.369V26H127.665C127.665 26 127.648 25.8353 127.613 25.506C127.579 25.1767 127.544 24.778 127.509 24.31C127.475 23.8247 127.457 23.3653 127.457 22.932V13.052ZM133.542 13.052H136.428V26H133.542V13.052ZM141.888 12.766C142.633 12.766 143.318 12.87 143.942 13.078C144.583 13.286 145.129 13.6067 145.58 14.04C146.048 14.456 146.403 14.976 146.646 15.6C146.906 16.224 147.036 16.9607 147.036 17.81V26H144.15V18.382C144.15 17.3247 143.89 16.5447 143.37 16.042C142.867 15.522 142.07 15.262 140.978 15.262C140.146 15.262 139.383 15.444 138.69 15.808C138.014 16.1547 137.459 16.614 137.026 17.186C136.592 17.7407 136.341 18.356 136.272 19.032L136.246 17.628C136.332 16.9867 136.523 16.38 136.818 15.808C137.112 15.2187 137.502 14.6987 137.988 14.248C138.473 13.78 139.045 13.416 139.704 13.156C140.362 12.896 141.09 12.766 141.888 12.766Z" fill="#EB7474"/>
<rect x="35" y="2" width="21" height="31" fill="#FAFAFB"/>
<path d="M43.8391 26.8152C44.1426 26.6833 44.3966 26.4501 44.5336 26.132C44.6021 25.9813 44.637 25.8136 44.6384 25.6456L44.7808 8.32282C44.7864 7.63395 44.2199 7.05799 43.531 7.05233C42.8421 7.04667 42.2662 7.61323 42.2605 8.30211L42.1431 22.5837L39.2103 19.6023C38.727 19.111 37.9205 19.1044 37.4293 19.5876C37.1752 19.8376 37.0549 20.1558 37.0523 20.4751C37.0497 20.7943 37.1647 21.1146 37.4146 21.3687L42.4805 26.5184C42.5971 26.637 42.7308 26.7221 42.8815 26.7905C43.1828 26.9274 43.5357 26.9304 43.8391 26.8152Z" fill="#4F82CA"/>
<path d="M50.7376 25.6957L50.855 11.4141L53.7878 14.3956C54.271 14.8868 55.0775 14.8935 55.5688 14.4102C56.0601 13.927 56.0667 13.1205 55.5834 12.6292L50.5176 7.47945C50.401 7.36087 50.2672 7.27575 50.1166 7.2073C49.8152 7.0704 49.4624 7.0675 49.1589 7.19943C48.8554 7.33136 48.6014 7.56452 48.4643 7.88265C48.3959 8.03332 48.3609 8.20107 48.3595 8.36909L48.2172 25.6918C48.2115 26.3807 48.7781 26.9567 49.467 26.9623C50.1558 26.968 50.7318 26.4014 50.7376 25.6957Z" fill="#4F82CA"/>
</svg>
