<svg width="24" height="24" viewBox="0 0 24 24" fill="none" xmlns="http://www.w3.org/2000/svg">
<path d="M12.2867 6H13.4294V6.57138H12.8581V7.14276H11.7152V8.85733H10.5724V8.28578H11.1438V6.57138H12.2867V6Z" fill="#B5C3D6"/>
<path d="M6 6V10.0001H10V6H6ZM9.42851 9.42862H6.57149V6.57151H9.42851V9.42862Z" fill="#B5C3D6"/>
<path d="M13.9996 6V10.0001H17.9994V6H13.9996ZM17.4279 9.42862H14.5711V6.57151H17.4281V9.42862H17.4279Z" fill="#B5C3D6"/>
<path d="M7.14417 7.14276H8.8585V8.85716H7.14417V7.14276Z" fill="#B5C3D6"/>
<path d="M15.1428 7.14276H16.8571V8.85716H15.1428V7.14276Z" fill="#B5C3D6"/>
<path d="M12.2866 7.71439H12.858V8.28577H12.2866V7.71439Z" fill="#B5C3D6"/>
<path d="M12.8574 8.2858H13.4287V10.5716H12.8574V9.4286H12.286V10.0002H11.7145V8.85739H12.8574V8.2858Z" fill="#B5C3D6"/>
<path d="M10.5723 9.42862H11.1437V10.0002H11.715V10.5716H11.1437V11.7144H11.715V11.143H12.2866V10.5716H12.8579V12.2859H11.715V12.8573H11.1437V12.2859H10.5723V11.143H9.42932V10.5716H10.5723V9.42862Z" fill="#B5C3D6"/>
<path d="M7.14417 10.5717H8.28689V11.1432H7.14417V10.5717Z" fill="#B5C3D6"/>
<path d="M13.4276 10.5717H14.5705V11.143H13.9992V11.7144H13.4276V10.5717Z" fill="#B5C3D6"/>
<path d="M15.1428 10.5717H15.7143V11.1432H15.1428V10.5717Z" fill="#B5C3D6"/>
<path d="M6 11.1429H7.14272V11.7143H7.71434V12.2859H7.14272V12.8573H6.57136V11.7143H6V11.1429Z" fill="#B5C3D6"/>
<path d="M8.28516 11.1429H9.42788V11.7143H8.85652V12.2859H9.42788V12.8573H8.28516V11.1429Z" fill="#B5C3D6"/>
<path d="M15.7145 11.1429H16.2861V11.7143H16.8574V13.4286H16.2861V12.8573H15.1429V13.4286H14.5717V12.2859H15.7145V11.1429Z" fill="#B5C3D6"/>
<path d="M9.42932 11.7142H10.0007V12.2858H9.42932V11.7142Z" fill="#B5C3D6"/>
<path d="M17.429 11.7142H18.0005V12.2858H17.429V11.7142Z" fill="#B5C3D6"/>
<path d="M10.0009 12.2859H10.5723V13.4287H9.42932V12.8573H10.0009V12.2859Z" fill="#B5C3D6"/>
<path d="M12.8576 12.2859H13.4291V12.8573H12.8576V12.2859Z" fill="#B5C3D6"/>
<path d="M6 12.8572H6.57136V13.4288H6V12.8572Z" fill="#B5C3D6"/>
<path d="M7.14417 12.8572H7.71553V13.4288H7.14417V12.8572Z" fill="#B5C3D6"/>
<path d="M11.713 12.8572H12.8559V13.4286H12.2846V14.5716H11.713V15.7144H11.1417V14.5716H10.5703V13.4286H11.1417V14.0001H11.713V12.8572Z" fill="#B5C3D6"/>
<path d="M13.4276 12.8572H13.9991V13.4288H13.4276V12.8572Z" fill="#B5C3D6"/>
<path d="M17.429 12.8572H18.0005V13.4288H17.429V12.8572Z" fill="#B5C3D6"/>
<path d="M12.8576 13.4285H13.4291V14.5713H12.8576V13.4285Z" fill="#B5C3D6"/>
<path d="M15.7148 13.4285H16.2864V14.5713H15.7148V13.4285Z" fill="#B5C3D6"/>
<path d="M16.8569 13.4285H17.4283V13.9999H16.8569V13.4285Z" fill="#B5C3D6"/>
<path d="M14.571 14H15.1422V14.5716H15.7138V15.7143H17.4279V16.2857H15.1422V17.4286H14.571V16.2857H13.9996V16.8574H13.428V17.4286H13.9996V18.0001H11.1424V17.4286H12.8566V16.2857H13.428V14.5716H14.571L14.571 14Z" fill="#B5C3D6"/>
<path d="M6 14V18.0002H10V14H6ZM9.42851 17.4287H6.57149V14.5718H9.42851V17.4287Z" fill="#B5C3D6"/>
<path d="M12.2866 14.5716H12.858V15.1429H12.2866V14.5716Z" fill="#B5C3D6"/>
<path d="M16.2859 14.5716H17.4284V15.1429H16.2859V14.5716Z" fill="#B5C3D6"/>
<path d="M7.14417 15.1429H8.8585V16.8572H7.14417V15.1429Z" fill="#B5C3D6"/>
<path d="M17.429 15.1429H18.0005V15.7144H17.429V15.1429Z" fill="#B5C3D6"/>
<path d="M10.5724 15.7144H11.1438V16.2857H11.7152V16.8574H10.5724V15.7144Z" fill="#B5C3D6"/>
<path d="M11.7145 15.7144H12.8572V16.2857H11.7145V15.7144Z" fill="#B5C3D6"/>
<path d="M16.2859 16.8574H16.8572V17.4288H16.2859V16.8574Z" fill="#B5C3D6"/>
<path d="M17.429 16.8574H18.0005V17.4288H17.429V16.8574Z" fill="#B5C3D6"/>
<path d="M15.1428 17.4286H15.7143V18.0002H15.1428V17.4286Z" fill="#B5C3D6"/>
<path d="M2 9V6.5C2 4.01 4.01 2 6.5 2H9" stroke="#B5C3D6" stroke-width="1.5" stroke-linecap="round" stroke-linejoin="round"/>
<path d="M15 2H17.5C19.99 2 22 4.01 22 6.5V9" stroke="#B5C3D6" stroke-width="1.5" stroke-linecap="round" stroke-linejoin="round"/>
<path d="M22 16V17.5C22 19.99 19.99 22 17.5 22H16" stroke="#B5C3D6" stroke-width="1.5" stroke-linecap="round" stroke-linejoin="round"/>
<path d="M9 22H6.5C4.01 22 2 19.99 2 17.5V15" stroke="#B5C3D6" stroke-width="1.5" stroke-linecap="round" stroke-linejoin="round"/>
</svg>
